<?xml version="1.0" encoding="UTF-8" standalone="no"?>
<!DOCTYPE svg PUBLIC "-//W3C//DTD SVG 1.1//EN" "http://www.w3.org/Graphics/SVG/1.1/DTD/svg11.dtd">
<svg width="100%" height="100%" viewBox="0 0 1889 103" version="1.1" xmlns="http://www.w3.org/2000/svg" xmlns:xlink="http://www.w3.org/1999/xlink" xml:space="preserve" xmlns:serif="http://www.serif.com/" style="fill-rule:evenodd;clip-rule:evenodd;stroke-linecap:round;stroke-linejoin:round;stroke-miterlimit:1.5;">
    <g transform="matrix(1,0,0,1,-14.7835,-485.675)">
        <g id="Arrows">
            <g id="HorizontalLine" transform="matrix(1,0,0,1,0,0.917171)">
                <path d="M128.622,536.468L1790.73,536.468" style="fill:none;stroke:rgb(0,109,119);stroke-width:3px;"/>
            </g>
            <g transform="matrix(1,0,0,1,0,-0.264812)">
                <g id="ArrowTip">
                    <path d="M129.065,536.144L129.065,559.456C129.065,559.456 119.775,538.247 14.783,536.144L129.065,536.144Z" style="fill:rgb(0,109,119);"/>
                    <path d="M129.065,536.144L129.065,559.456C129.065,559.456 119.775,538.247 14.783,536.144L129.065,536.144ZM126.065,539.144L126.065,552.446C124.579,551.421 122.722,550.313 120.406,549.167C113.883,545.94 103.285,542.21 86.172,539.145C86.168,539.144 126.065,539.144 126.065,539.144L126.065,539.144Z" style="fill:rgb(0,109,119);"/>
                </g>
            </g>
            <g transform="matrix(-1,0,0,1,1918.35,-0.249756)">
                <g id="ArrowTip1" serif:id="ArrowTip">
                    <path d="M129.065,536.144L129.065,559.456C129.065,559.456 119.775,538.247 14.783,536.144L129.065,536.144Z" style="fill:rgb(0,109,119);"/>
                    <path d="M129.065,536.144L129.065,559.456C129.065,559.456 119.775,538.247 14.783,536.144L129.065,536.144ZM128.065,537.144L54.735,537.144C90.939,540.258 109.796,546.149 119.519,550.96C123.954,553.154 126.561,555.159 128.064,556.625L128.065,537.144Z" style="fill:rgb(0,109,119);"/>
                </g>
            </g>
        </g>
        <g transform="matrix(1,0,0,1,0,-2)">
            <path d="M917.542,505.248C917.542,505.248 906.295,494.821 887.794,490.867C878.424,488.864 867.202,488.525 854.641,492.011C833.61,497.873 823.142,516.813 828.374,536.421C832.192,550.727 844.45,565.467 867.336,575.7C895.112,588.033 926.313,594.074 960.98,587.959C975.543,585.39 990.72,580.669 1006.49,573.355C1019.75,567.2 1033.42,559.178 1047.54,549.104C1079.55,526.105 1108.47,511.806 1132.24,505.739C1159.37,498.815 1179.7,502.613 1189.99,516.959C1194.22,522.861 1194.02,530.785 1190.79,538.078C1187.88,544.629 1182.53,550.684 1175.61,554.427C1164.31,560.535 1152.8,560.648 1144.33,558.114C1134.7,555.237 1128.89,549.019 1132.09,544.23C1132.21,544.066 1132.16,543.842 1132,543.731C1131.84,543.619 1131.61,543.661 1131.5,543.824C1127.97,548.885 1133.75,555.927 1143.99,559.193C1152.71,561.974 1164.61,562.049 1176.4,555.938C1183.78,552.113 1189.52,545.808 1192.7,538.948C1196.43,530.921 1196.62,522.142 1192.03,515.517C1181.42,500.221 1160.11,495.431 1131.4,502.352C1107.18,508.189 1077.65,522.387 1044.89,545.37C1030.98,555.19 1017.49,562.951 1004.46,568.979C989.085,576.088 974.326,580.743 960.149,583.337C926.426,589.507 896.01,584.005 868.841,572.264C846.968,562.878 835.021,549.171 831.18,535.648C826.007,517.43 835.655,499.709 855.188,493.91C867.383,490.276 878.342,490.409 887.524,492.19C905.798,495.734 917.058,505.78 917.058,505.78C917.205,505.914 917.432,505.903 917.566,505.756C917.7,505.609 917.689,505.382 917.542,505.248Z" style="fill:rgb(0,109,119);"/>
            <g transform="matrix(-1,0,0,-1,1920.59,1078.31)">
                <path d="M917.542,505.248C917.542,505.248 906.295,494.821 887.794,490.867C878.424,488.864 867.202,488.525 854.641,492.011C833.61,497.873 823.142,516.813 828.374,536.421C832.192,550.727 844.45,565.467 867.336,575.7C895.112,588.033 926.313,594.074 960.98,587.959C975.543,585.39 990.72,580.669 1006.49,573.355C1019.75,567.2 1033.42,559.178 1047.54,549.104C1079.55,526.105 1108.47,511.806 1132.24,505.739C1159.37,498.815 1179.7,502.613 1189.99,516.959C1194.22,522.861 1194.02,530.785 1190.79,538.078C1187.88,544.629 1182.53,550.684 1175.61,554.427C1164.31,560.535 1152.8,560.648 1144.33,558.114C1134.7,555.237 1128.89,549.019 1132.09,544.23C1132.21,544.066 1132.16,543.842 1132,543.731C1131.84,543.619 1131.61,543.661 1131.5,543.824C1127.97,548.885 1133.75,555.927 1143.99,559.193C1152.71,561.974 1164.61,562.049 1176.4,555.938C1183.78,552.113 1189.52,545.808 1192.7,538.948C1196.43,530.921 1196.62,522.142 1192.03,515.517C1181.42,500.221 1160.11,495.431 1131.4,502.352C1107.18,508.189 1077.65,522.387 1044.89,545.37C1030.98,555.19 1017.49,562.951 1004.46,568.979C989.085,576.088 974.326,580.743 960.149,583.337C926.426,589.507 896.01,584.005 868.841,572.264C846.968,562.878 835.021,549.171 831.18,535.648C826.007,517.43 835.655,499.709 855.188,493.91C867.383,490.276 878.342,490.409 887.524,492.19C905.798,495.734 917.058,505.78 917.058,505.78C917.205,505.914 917.432,505.903 917.566,505.756C917.7,505.609 917.689,505.382 917.542,505.248Z" style="fill:rgb(0,109,119);"/>
            </g>
            <g transform="matrix(1,0,0,1,-132.162,-1.79873)">
                <circle cx="918.961" cy="534.248" r="3.067" style="fill:rgb(0,109,119);"/>
                <path d="M918.961,531.18C920.654,531.18 922.028,532.555 922.028,534.248C922.028,535.941 920.654,537.315 918.961,537.315C917.268,537.315 915.894,535.941 915.894,534.248C915.894,532.555 917.268,531.18 918.961,531.18ZM919.489,532.763C919.547,532.806 919.608,532.842 919.674,532.859C919.853,532.906 919.692,533.271 919.857,533.352C920.043,533.444 919.575,533.771 919.723,533.922C919.783,533.984 919.511,534.034 919.564,534.105C919.636,534.202 919.206,534.132 919.258,534.248C919.313,534.36 919.194,534.307 919.041,534.242L919.049,534.22C919.102,533.912 919.667,533.918 919.585,533.624C919.534,533.443 919.725,533.306 919.638,533.139C919.571,533.01 919.527,532.884 919.489,532.763C919.32,532.639 919.171,532.454 918.961,532.483C918.75,532.458 918.591,532.624 918.417,532.741C918.372,532.906 918.326,533.081 918.246,533.26C918.133,533.51 918.487,533.665 918.47,533.94C918.463,534.052 918.578,534.147 918.691,534.137C918.783,534.13 918.923,534.189 919.041,534.242C918.983,534.367 918.643,534.088 918.561,534.248C918.616,534.128 918.178,534.181 918.253,534.08C918.307,534.008 918.043,533.946 918.105,533.882C918.252,533.727 917.821,533.393 918.007,533.294C918.162,533.21 918.063,532.884 918.234,532.833C918.298,532.814 918.359,532.78 918.417,532.741C918.508,532.408 918.597,532.113 918.961,531.899C919.327,532.127 919.384,532.427 919.489,532.763Z" style="fill:rgb(0,109,119);"/>
            </g>
            <g transform="matrix(1,0,0,1,214.842,11.6324)">
                <circle cx="918.961" cy="534.248" r="3.067" style="fill:rgb(0,109,119);"/>
                <path d="M918.961,531.18C920.654,531.18 922.028,532.555 922.028,534.248C922.028,535.941 920.654,537.315 918.961,537.315C917.268,537.315 915.894,535.941 915.894,534.248C915.894,532.555 917.268,531.18 918.961,531.18ZM919.489,532.763C919.547,532.806 919.608,532.842 919.674,532.859C919.853,532.906 919.692,533.271 919.857,533.352C920.043,533.444 919.575,533.771 919.723,533.922C919.783,533.984 919.511,534.034 919.564,534.105C919.636,534.202 919.206,534.132 919.258,534.248C919.313,534.36 919.194,534.307 919.041,534.242L919.049,534.22C919.102,533.912 919.667,533.918 919.585,533.624C919.534,533.443 919.725,533.306 919.638,533.139C919.571,533.01 919.527,532.884 919.489,532.763C919.32,532.639 919.171,532.454 918.961,532.483C918.75,532.458 918.591,532.624 918.417,532.741C918.372,532.906 918.326,533.081 918.246,533.26C918.133,533.51 918.487,533.665 918.47,533.94C918.463,534.052 918.578,534.147 918.691,534.137C918.783,534.13 918.923,534.189 919.041,534.242C918.983,534.367 918.643,534.088 918.561,534.248C918.616,534.128 918.178,534.181 918.253,534.08C918.307,534.008 918.043,533.946 918.105,533.882C918.252,533.727 917.821,533.393 918.007,533.294C918.162,533.21 918.063,532.884 918.234,532.833C918.298,532.814 918.359,532.78 918.417,532.741C918.508,532.408 918.597,532.113 918.961,531.899C919.327,532.127 919.384,532.427 919.489,532.763Z" style="fill:rgb(0,109,119);"/>
            </g>
        </g>
        <g transform="matrix(1.29904,0,0,1.29904,-288.869,-165.777)">
            <g id="C">
                <path d="M987.942,530.724C987.942,530.724 984.557,533.956 983.519,536.666C983.017,537.979 983.074,539.172 984.077,539.93C985.153,540.744 987.08,540.488 989.23,539.629C993.14,538.066 997.84,534.614 999.184,533.373C1000.49,532.165 1003.75,529.242 1004.92,525.984C1005.69,523.852 1005.6,521.588 1003.79,519.495C1002.63,518.158 1000.84,517.56 998.632,517.615C996.485,517.668 993.917,518.349 991.22,519.499C985.899,521.77 980.058,525.863 975.942,530.167C973.808,532.437 971.696,535.362 969.893,538.533C968.158,541.581 966.704,544.852 965.74,547.948C964.793,550.992 964.323,553.875 964.512,556.239C964.7,558.595 965.532,560.463 967.101,561.584C970.316,563.871 975.387,564.919 983.554,560.074C988.52,557.128 994.683,551.965 1002.36,543.52C1002.42,543.454 1002.42,543.348 1002.35,543.286C1002.28,543.223 1002.18,543.226 1002.12,543.293C994.237,551.385 987.968,556.281 982.962,559.039C975.454,563.175 970.936,562.377 968.095,560.229C966.933,559.354 966.422,557.896 966.322,556.116C966.201,553.949 966.716,551.328 967.638,548.559C968.619,545.614 970.077,542.515 971.771,539.616C973.52,536.624 975.521,533.843 977.561,531.698C981.443,527.546 986.986,523.604 992.029,521.353C994.455,520.27 996.756,519.568 998.699,519.475C1000.29,519.398 1001.62,519.708 1002.48,520.653C1003.88,522.176 1003.95,523.866 1003.43,525.472C1002.43,528.517 999.466,531.284 998.293,532.44C997.196,533.522 993.685,536.297 990.336,538.079C988.827,538.882 987.357,539.49 986.159,539.625C985.496,539.701 984.925,539.639 984.503,539.344C983.48,538.63 983.808,537.304 984.482,535.942C985.69,533.505 988.176,530.961 988.176,530.961C988.241,530.897 988.242,530.791 988.177,530.726C988.113,530.661 988.008,530.66 987.942,530.724Z"/>
            </g>
            <g id="T">
                <path d="M947.391,540.115C947.391,540.115 941.554,536.813 939.446,531.703C938.574,529.588 938.371,527.151 939.601,524.496C940.137,523.322 941.158,522.547 942.453,522.018C944.173,521.317 946.373,521.088 948.749,521.102C951.418,521.118 954.299,521.48 956.997,521.937C960.209,522.482 963.164,523.158 965.16,523.733C968.924,524.765 975.29,527.206 980.559,528.098C983.388,528.577 985.906,528.604 987.578,527.818C988.724,527.279 989.344,525.941 989.24,524.703C989.14,523.511 988.408,522.421 986.905,522.339C986.814,522.331 986.733,522.398 986.725,522.489C986.717,522.581 986.784,522.662 986.876,522.67C988.106,522.824 988.659,523.747 988.675,524.731C988.691,525.701 988.188,526.738 987.268,527.099C985.684,527.724 983.374,527.493 980.795,526.905C975.622,525.725 969.423,523.017 965.74,521.806C963.408,521.075 959.805,520.092 955.954,519.514C952.51,518.996 948.873,518.797 945.799,519.213C942.088,519.715 939.183,521.155 938.101,523.855C936.867,527.001 937.234,529.802 938.396,532.176C940.934,537.36 947.238,540.409 947.238,540.409C947.319,540.452 947.419,540.42 947.462,540.339C947.504,540.258 947.473,540.157 947.391,540.115Z"/>
                <path d="M966.159,528.05C966.159,528.05 963.56,531.392 960.284,536.012C959.092,537.692 957.816,539.535 956.551,541.456C955.547,542.981 954.544,544.545 953.612,546.113C952.639,547.749 951.733,549.382 950.939,550.945C949.07,554.622 947.774,557.898 947.462,559.919C947.212,561.54 947.645,562.51 948.511,562.739C949.728,563.054 951.024,562.719 952.202,562.05C954.371,560.817 956.129,558.579 956.129,558.579C956.189,558.51 956.182,558.405 956.113,558.344C956.044,558.284 955.939,558.291 955.878,558.36C955.878,558.36 953.984,560.303 951.803,561.253C950.833,561.675 949.805,561.894 948.884,561.551C948.821,561.528 948.811,561.458 948.791,561.39C948.748,561.248 948.757,561.072 948.775,560.866C948.88,559.652 949.748,557.719 950.971,555.351C951.822,553.701 952.875,551.871 953.978,549.929C954.973,548.178 956.01,546.339 957.053,544.51C958.328,542.275 959.592,540.05 960.771,537.994C963.927,532.493 966.433,528.237 966.433,528.237C966.485,528.161 966.465,528.058 966.389,528.007C966.314,527.955 966.21,527.975 966.159,528.05Z"/>
            </g>
        </g>
    </g>
</svg>
