<svg id="visual" viewBox="0 0 900 200" width="900" height="200" xmlns="http://www.w3.org/2000/svg" xmlns:xlink="http://www.w3.org/1999/xlink" version="1.1"><rect x="0" y="0" width="900" height="200" fill="#006d77"></rect><path d="M0 43L21.5 44.5C43 46 86 49 128.8 51.8C171.7 54.7 214.3 57.3 257.2 63.2C300 69 343 78 385.8 88.3C428.7 98.7 471.3 110.3 514.2 106.2C557 102 600 82 642.8 84.3C685.7 86.7 728.3 111.3 771.2 115.2C814 119 857 102 878.5 93.5L900 85L900 0L878.5 0C857 0 814 0 771.2 0C728.3 0 685.7 0 642.8 0C600 0 557 0 514.2 0C471.3 0 428.7 0 385.8 0C343 0 300 0 257.2 0C214.3 0 171.7 0 128.8 0C86 0 43 0 21.5 0L0 0Z" fill="#83c5be" stroke-linecap="round" stroke-linejoin="miter"></path></svg>